<?xml version="1.0" encoding="utf-8"?>
<!-- Generator: Adobe Illustrator 16.0.0, SVG Export Plug-In . SVG Version: 6.00 Build 0)  -->
<!DOCTYPE svg PUBLIC "-//W3C//DTD SVG 1.1//EN" "http://www.w3.org/Graphics/SVG/1.1/DTD/svg11.dtd">
<svg version="1.1" id="Layer_1" xmlns="http://www.w3.org/2000/svg" xmlns:xlink="http://www.w3.org/1999/xlink" x="0px" y="0px"
	 width="26px" height="26px" viewBox="0 0 26 26" enable-background="new 0 0 26 26" xml:space="preserve">
<path fill="#231F20" d="M21.309,3.41c-0.172-0.394-0.396-0.729-0.676-1.003c-0.283-0.275-0.605-0.494-0.965-0.655
	c-0.357-0.162-0.727-0.289-1.109-0.38c-0.379-0.092-0.756-0.151-1.131-0.18c-0.373-0.028-0.701-0.042-0.98-0.042H14.18h-1.918
	h-2.247c-0.437,0-0.95,0.039-1.543,0.116c-0.592,0.077-1.154,0.242-1.69,0.496C6.246,2.016,5.798,2.385,5.439,2.871
	C5.08,3.358,4.907,4.01,4.921,4.827v6.101l1.881,1.761V4.911C6.788,4.263,6.909,3.752,7.162,3.378
	C7.415,3.005,7.74,2.728,8.133,2.544C8.529,2.361,8.947,2.248,9.39,2.206c0.445-0.042,0.836-0.063,1.174-0.063h1.697v13.795H11.72
	v1.188l0.542,0.509l1.881-1.761v-3.185h0.037h2.268c0.436,0,0.951-0.038,1.543-0.117c0.592-0.076,1.15-0.243,1.678-0.496
	c0.529-0.253,0.979-0.624,1.344-1.11c0.367-0.485,0.543-1.144,0.529-1.976V4.827C21.555,4.277,21.477,3.805,21.309,3.41z
	 M19.658,8.926c0.014,0.648-0.107,1.156-0.369,1.522c-0.26,0.366-0.59,0.641-0.982,0.824c-0.396,0.184-0.811,0.295-1.248,0.338
	c-0.436,0.042-0.824,0.063-1.162,0.063H14.18V2.143h1.717c0.338,0,0.727,0.021,1.162,0.063c0.438,0.042,0.852,0.155,1.248,0.339
	c0.393,0.183,0.723,0.461,0.982,0.834c0.262,0.374,0.383,0.885,0.369,1.533V8.926z"/>
<path fill="#049372" d="M20.766,2.925c-0.171-0.394-0.396-0.729-0.676-1.003c-0.283-0.275-0.604-0.494-0.964-0.655
	c-0.357-0.162-0.728-0.289-1.109-0.38c-0.38-0.092-0.757-0.151-1.131-0.18c-0.373-0.028-0.701-0.042-0.981-0.042h-2.267H11.72H9.473
	c-0.437,0-0.95,0.039-1.543,0.116c-0.592,0.077-1.154,0.242-1.69,0.496C5.704,1.53,5.257,1.9,4.897,2.386
	C4.538,2.873,4.365,3.524,4.38,4.341v6.101l1.881,1.761V4.426C6.246,3.778,6.367,3.267,6.62,2.893
	C6.873,2.52,7.198,2.242,7.592,2.059C7.987,1.875,8.405,1.762,8.849,1.72c0.445-0.042,0.836-0.063,1.174-0.063h1.697v15.491
	l1.881-1.761v-3.185h0.037h2.267c0.436,0,0.952-0.038,1.544-0.117c0.591-0.076,1.149-0.243,1.678-0.496
	c0.529-0.253,0.978-0.624,1.344-1.11c0.366-0.485,0.542-1.144,0.528-1.976V4.341C21.012,3.792,20.934,3.32,20.766,2.925z
	 M19.116,8.441c0.014,0.648-0.108,1.156-0.37,1.522c-0.26,0.366-0.589,0.641-0.981,0.824c-0.396,0.184-0.811,0.295-1.248,0.338
	c-0.437,0.042-0.824,0.063-1.162,0.063h-1.717V1.657h1.717c0.338,0,0.726,0.021,1.162,0.063c0.438,0.042,0.852,0.155,1.248,0.339
	c0.393,0.183,0.722,0.461,0.981,0.834c0.262,0.374,0.384,0.885,0.37,1.533V8.441z"/>
</svg>
